<svg width="240" height="240" viewBox="0 0 240 240" fill="none" xmlns="http://www.w3.org/2000/svg">
<path fill-rule="evenodd" clip-rule="evenodd" d="M113.745 200H126.255V192.33C126.255 182.98 132.005 174.58 140.895 170.91C150.095 167.08 160.145 168.96 166.765 175.62L172.155 181.03L181.035 172.15L175.585 166.71C168.955 160.09 167.085 150.05 170.815 141.14C170.815 141.14 170.825 141.13 170.825 141.12L170.935 140.84C174.575 132.01 182.985 126.25 192.335 126.25H199.995V113.75H192.335C182.985 113.75 174.575 108 170.915 99.11C167.065 89.91 168.955 79.86 175.615 73.23L181.025 67.84L172.155 58.97L166.705 64.42C160.085 71.04 150.055 72.91 141.145 69.19C132.015 65.42 126.255 57.02 126.255 47.67V40H113.745V47.67C113.745 57.02 107.995 65.42 99.1051 69.09C89.9151 72.94 79.8651 71.05 73.2351 64.38L67.8451 58.97L58.9651 67.85L64.4151 73.29C71.0351 79.91 72.9151 89.95 69.1851 98.86C65.4251 107.99 57.0151 113.75 47.6651 113.75H39.9951V126.25H47.6651C57.0151 126.25 65.4251 132 69.0851 140.89C72.9351 150.09 71.0451 160.14 64.3851 166.77L58.9751 172.16L67.8451 181.03L73.2951 175.58C79.9151 168.96 89.9451 167.09 98.8551 170.81C107.985 174.58 113.745 182.98 113.745 192.33V200ZM129.425 220H110.505C101.265 220 93.7451 212.48 93.7451 203.24V192.33C93.7451 190.86 92.5751 189.85 91.4751 189.4C90.0351 188.81 88.4951 188.69 87.4351 189.72L79.7351 197.43C73.1751 203.97 62.5151 203.99 55.9651 197.43L42.5651 184.03C39.3851 180.85 37.6451 176.63 37.6451 172.13C37.6551 167.64 39.4051 163.42 42.5951 160.24L50.2751 152.59C51.3251 151.54 51.2151 150 50.7451 148.89C50.1451 147.42 49.1451 146.25 47.6651 146.25H36.8251C27.5451 146.25 19.9951 138.71 19.9951 129.43V110.51C19.9951 101.26 27.5151 93.75 36.7651 93.75H47.6651C49.1351 93.75 50.1451 92.57 50.5951 91.47C51.1951 90.03 51.3151 88.48 50.2751 87.44L42.5651 79.74C36.0251 73.17 36.0251 62.51 42.5651 55.97L55.9651 42.57C59.1451 39.39 63.3551 37.65 67.8451 37.65H67.8651C72.3551 37.65 76.5851 39.4 79.7551 42.59L87.4051 50.28C88.4551 51.34 90.0051 51.22 91.1151 50.75C92.5751 50.14 93.7451 49.14 93.7451 47.67V36.83C93.7451 27.55 101.295 20 110.575 20H129.495C138.735 20 146.255 27.52 146.255 36.76V47.67C146.255 49.14 147.425 50.15 148.525 50.6C149.975 51.2 151.515 51.33 152.565 50.28L160.265 42.57C166.825 36.03 177.485 36.01 184.035 42.57L197.445 55.98C200.625 59.15 202.365 63.37 202.355 67.87C202.355 72.35 200.605 76.58 197.415 79.75L189.725 87.41C188.675 88.46 188.785 90 189.255 91.11C189.855 92.58 190.855 93.75 192.335 93.75H203.175C212.455 93.75 219.995 101.29 219.995 110.57V129.49C219.995 138.74 212.485 146.25 203.235 146.25H192.335C190.865 146.25 189.855 147.43 189.405 148.53C189.395 148.54 189.275 148.84 189.265 148.86C188.805 149.97 188.685 151.52 189.725 152.56L197.435 160.26C203.975 166.83 203.975 177.49 197.435 184.03L184.035 197.43C180.855 200.61 176.645 202.35 172.155 202.35H172.135C167.645 202.35 163.415 200.6 160.245 197.41L152.595 189.72C151.545 188.67 149.985 188.79 148.885 189.25C147.425 189.86 146.255 190.86 146.255 192.33V203.17C146.255 212.45 138.705 220 129.425 220V220ZM120 105C111.73 105 105 111.73 105 120C105 128.27 111.73 135 120 135C128.27 135 135 128.27 135 120C135 111.73 128.27 105 120 105M120 155C100.7 155 85 139.3 85 120C85 100.7 100.7 85 120 85C139.3 85 155 100.7 155 120C155 139.3 139.3 155 120 155" fill="#231F20"/>
<mask id="mask0" mask-type="alpha" maskUnits="userSpaceOnUse" x="19" y="20" width="201" height="200">
<path fill-rule="evenodd" clip-rule="evenodd" d="M113.745 200H126.255V192.33C126.255 182.98 132.005 174.58 140.895 170.91C150.095 167.08 160.145 168.96 166.765 175.62L172.155 181.03L181.035 172.15L175.585 166.71C168.955 160.09 167.085 150.05 170.815 141.14C170.815 141.14 170.825 141.13 170.825 141.12L170.935 140.84C174.575 132.01 182.985 126.25 192.335 126.25H199.995V113.75H192.335C182.985 113.75 174.575 108 170.915 99.11C167.065 89.91 168.955 79.86 175.615 73.23L181.025 67.84L172.155 58.97L166.705 64.42C160.085 71.04 150.055 72.91 141.145 69.19C132.015 65.42 126.255 57.02 126.255 47.67V40H113.745V47.67C113.745 57.02 107.995 65.42 99.1051 69.09C89.9151 72.94 79.8651 71.05 73.2351 64.38L67.8451 58.97L58.9651 67.85L64.4151 73.29C71.0351 79.91 72.9151 89.95 69.1851 98.86C65.4251 107.99 57.0151 113.75 47.6651 113.75H39.9951V126.25H47.6651C57.0151 126.25 65.4251 132 69.0851 140.89C72.9351 150.09 71.0451 160.14 64.3851 166.77L58.9751 172.16L67.8451 181.03L73.2951 175.58C79.9151 168.96 89.9451 167.09 98.8551 170.81C107.985 174.58 113.745 182.98 113.745 192.33V200ZM129.425 220H110.505C101.265 220 93.7451 212.48 93.7451 203.24V192.33C93.7451 190.86 92.5751 189.85 91.4751 189.4C90.0351 188.81 88.4951 188.69 87.4351 189.72L79.7351 197.43C73.1751 203.97 62.5151 203.99 55.9651 197.43L42.5651 184.03C39.3851 180.85 37.6451 176.63 37.6451 172.13C37.6551 167.64 39.4051 163.42 42.5951 160.24L50.2751 152.59C51.3251 151.54 51.2151 150 50.7451 148.89C50.1451 147.42 49.1451 146.25 47.6651 146.25H36.8251C27.5451 146.25 19.9951 138.71 19.9951 129.43V110.51C19.9951 101.26 27.5151 93.75 36.7651 93.75H47.6651C49.1351 93.75 50.1451 92.57 50.5951 91.47C51.1951 90.03 51.3151 88.48 50.2751 87.44L42.5651 79.74C36.0251 73.17 36.0251 62.51 42.5651 55.97L55.9651 42.57C59.1451 39.39 63.3551 37.65 67.8451 37.65H67.8651C72.3551 37.65 76.5851 39.4 79.7551 42.59L87.4051 50.28C88.4551 51.34 90.0051 51.22 91.1151 50.75C92.5751 50.14 93.7451 49.14 93.7451 47.67V36.83C93.7451 27.55 101.295 20 110.575 20H129.495C138.735 20 146.255 27.52 146.255 36.76V47.67C146.255 49.14 147.425 50.15 148.525 50.6C149.975 51.2 151.515 51.33 152.565 50.28L160.265 42.57C166.825 36.03 177.485 36.01 184.035 42.57L197.445 55.98C200.625 59.15 202.365 63.37 202.355 67.87C202.355 72.35 200.605 76.58 197.415 79.75L189.725 87.41C188.675 88.46 188.785 90 189.255 91.11C189.855 92.58 190.855 93.75 192.335 93.75H203.175C212.455 93.75 219.995 101.29 219.995 110.57V129.49C219.995 138.74 212.485 146.25 203.235 146.25H192.335C190.865 146.25 189.855 147.43 189.405 148.53C189.395 148.54 189.275 148.84 189.265 148.86C188.805 149.97 188.685 151.52 189.725 152.56L197.435 160.26C203.975 166.83 203.975 177.49 197.435 184.03L184.035 197.43C180.855 200.61 176.645 202.35 172.155 202.35H172.135C167.645 202.35 163.415 200.6 160.245 197.41L152.595 189.72C151.545 188.67 149.985 188.79 148.885 189.25C147.425 189.86 146.255 190.86 146.255 192.33V203.17C146.255 212.45 138.705 220 129.425 220V220ZM120 105C111.73 105 105 111.73 105 120C105 128.27 111.73 135 120 135C128.27 135 135 128.27 135 120C135 111.73 128.27 105 120 105M120 155C100.7 155 85 139.3 85 120C85 100.7 100.7 85 120 85C139.3 85 155 100.7 155 120C155 139.3 139.3 155 120 155" fill="white"/>
</mask>
<g mask="url(#mask0)">
<rect width="240" height="240" fill="#707C97"/>
</g>
</svg>
